<?xml version="1.0" standalone="no"?>
<!DOCTYPE svg PUBLIC "-//W3C//DTD SVG 20010904//EN"
 "http://www.w3.org/TR/2001/REC-SVG-20010904/DTD/svg10.dtd">
<svg version="1.0" xmlns="http://www.w3.org/2000/svg"
 width="700.000000pt" height="700.000000pt" viewBox="0 0 700.000000 700.000000"
 preserveAspectRatio="xMidYMid meet">
<metadata>
Created by potrace 1.14, written by Peter Selinger 2001-2017
</metadata>
<g transform="translate(0.000000,700.000000) scale(0.100000,-0.100000)"
fill="#000000" stroke="none">
<path d="M3320 5844 c-204 -20 -451 -78 -635 -149 -557 -215 -993 -610 -1265
-1145 -38 -76 -74 -142 -80 -145 -5 -3 -47 1 -92 10 -120 23 -303 21 -402 -5
-319 -82 -484 -319 -503 -725 -18 -375 98 -708 300 -861 154 -116 333 -157
583 -131 l81 9 33 -79 c220 -533 614 -961 1115 -1215 235 -118 460 -191 730
-235 82 -13 168 -17 335 -17 247 -1 353 11 565 63 563 138 1062 488 1388 973
91 136 141 228 208 383 l56 130 149 1 c215 1 337 37 471 138 203 153 320 495
300 871 -24 440 -233 692 -609 734 -87 10 -140 7 -313 -15 l-50 -6 -63 125
c-346 686 -988 1151 -1757 1273 -97 15 -451 27 -545 18z m440 -294 c457 -57
857 -246 1182 -559 137 -132 214 -223 310 -371 163 -249 269 -536 313 -842 19
-134 19 -422 0 -556 -64 -447 -253 -835 -564 -1156 -239 -245 -509 -416 -822
-521 -228 -75 -413 -105 -661 -105 -454 0 -864 136 -1238 413 -113 84 -313
281 -397 392 -206 274 -337 575 -398 920 -22 125 -31 405 -16 546 39 373 183
738 412 1041 80 107 280 307 387 387 287 216 627 358 972 405 127 17 404 20
520 6z m2333 -1365 c122 -32 199 -93 248 -199 44 -94 59 -181 59 -347 0 -362
-96 -570 -300 -650 -74 -29 -266 -40 -276 -16 -3 9 5 76 17 149 20 114 23 168
23 378 0 262 -8 335 -60 558 -15 62 -24 115 -21 118 25 25 226 31 310 9z
m-4919 -15 c87 -14 86 -13 59 -132 -73 -327 -81 -660 -22 -967 15 -76 17 -107
9 -115 -7 -7 -58 -11 -138 -11 -108 1 -135 4 -184 23 -152 61 -245 198 -283
418 -20 113 -20 356 0 448 40 187 146 304 307 335 60 12 182 13 252 1z"/>
<path d="M4224 4325 c-162 -35 -270 -150 -318 -339 -32 -122 -32 -340 -1 -382
17 -25 88 -24 115 1 18 16 20 32 20 134 0 186 33 302 105 374 91 89 271 89
357 0 72 -75 98 -170 98 -360 0 -135 5 -147 64 -159 43 -7 74 9 83 44 15 52 7
293 -11 361 -39 142 -111 242 -209 291 -102 49 -190 60 -303 35z"/>
<path d="M2513 4306 c-142 -46 -238 -160 -279 -333 -24 -99 -25 -330 -1 -367
24 -36 87 -37 123 -1 23 23 24 28 18 108 -8 99 9 232 37 296 49 111 113 153
233 153 85 -1 136 -19 184 -65 72 -69 102 -171 102 -357 0 -69 4 -130 8 -136
24 -37 99 -45 128 -13 17 19 19 37 18 173 0 112 -5 167 -18 215 -41 150 -117
249 -234 304 -60 28 -78 32 -172 34 -68 2 -120 -2 -147 -11z"/>
<path d="M4168 2788 c-8 -7 -36 -46 -62 -86 -145 -221 -339 -337 -582 -349
-212 -11 -352 42 -494 186 -47 48 -98 110 -114 141 -35 66 -64 100 -86 100
-20 0 -124 -34 -158 -52 -34 -18 -37 -50 -9 -112 58 -125 185 -277 304 -362
239 -172 575 -207 876 -92 170 65 351 216 467 389 96 144 94 168 -24 217 -84
36 -95 37 -118 20z"/>
</g>
</svg>
